<svg width="12" height="12" viewBox="0 0 12 12" fill="none" xmlns="http://www.w3.org/2000/svg">
<path d="M4.63682 12C5.04146 12 5.35323 11.8362 5.57214 11.5017L11.7811 1.64505C11.9337 1.39932 12 1.17406 12 0.962457C12 0.40273 11.602 0 11.0448 0C10.6667 0 10.4279 0.136519 10.1957 0.518771L4.61028 9.61092L1.75788 5.91126C1.53897 5.6314 1.30017 5.50171 0.968491 5.50171C0.404643 5.50171 0 5.91126 0 6.47782C0 6.72355 0.079602 6.95563 0.28524 7.20136L3.71476 11.5358C3.97347 11.8567 4.25871 12 4.63682 12Z" fill="#007AFF"/>
</svg>
