<svg width="30" height="29" viewBox="0 0 30 29" fill="none" xmlns="http://www.w3.org/2000/svg">
<path d="M15.0003 24.2L14.2932 24.9071C14.4807 25.0946 14.735 25.2 15.0003 25.2C15.2655 25.2 15.5198 25.0946 15.7074 24.9071L15.0003 24.2ZM3.86659 13.0663L3.15948 13.7734H3.15948L3.86659 13.0663ZM13.1999 3.73298L12.4928 4.44009V4.44009L13.1999 3.73298ZM15.0003 5.53332L14.2932 6.24043C14.6837 6.63095 15.3168 6.63095 15.7074 6.24043L15.0003 5.53332ZM16.8006 3.73298L16.0935 3.02588V3.02588L16.8006 3.73298ZM15.7074 23.4929L4.57369 12.3592L3.15948 13.7734L14.2932 24.9071L15.7074 23.4929ZM25.4268 12.3592L14.2932 23.4929L15.7074 24.9071L26.841 13.7734L25.4268 12.3592ZM12.4928 4.44009L14.2932 6.24043L15.7074 4.82621L13.907 3.02588L12.4928 4.44009ZM15.7074 6.24043L17.5077 4.44009L16.0935 3.02588L14.2932 4.82621L15.7074 6.24043ZM21.4673 0.799988C19.4517 0.799988 17.5187 1.60066 16.0935 3.02588L17.5077 4.44009C18.5578 3.38995 19.9821 2.79999 21.4673 2.79999V0.799988ZM27.0669 8.39965C27.0669 9.88477 26.477 11.3091 25.4268 12.3592L26.841 13.7734C28.2662 12.3482 29.0669 10.4152 29.0669 8.39965H27.0669ZM29.0669 8.39965C29.0669 4.20247 25.6644 0.799988 21.4673 0.799988V2.79999C24.5599 2.79999 27.0669 5.30704 27.0669 8.39965H29.0669ZM8.53326 2.79999C10.0184 2.79999 11.4427 3.38995 12.4928 4.44009L13.907 3.02588C12.4818 1.60066 10.5488 0.799988 8.53326 0.799988V2.79999ZM2.93359 8.39965C2.93359 5.30704 5.44065 2.79999 8.53326 2.79999V0.799988C4.33608 0.799988 0.933594 4.20247 0.933594 8.39965H2.93359ZM4.5737 12.3592C3.52355 11.3091 2.93359 9.88477 2.93359 8.39965H0.933594C0.933594 10.4152 1.73427 12.3482 3.15948 13.7734L4.5737 12.3592Z" fill="#131313"/>
</svg>
