<svg width="28" height="28" viewBox="0 0 28 28" fill="none" xmlns="http://www.w3.org/2000/svg">
<path d="M14.0003 23.2L13.4699 23.7303C13.6106 23.871 13.8013 23.95 14.0003 23.95C14.1992 23.95 14.3899 23.871 14.5306 23.7303L14.0003 23.2ZM2.86659 12.0663L2.33626 12.5966L2.33626 12.5966L2.86659 12.0663ZM12.1999 2.73298L11.6696 3.26331V3.26332L12.1999 2.73298ZM14.0003 4.53332L13.4699 5.06365C13.7628 5.35654 14.2377 5.35654 14.5306 5.06365L14.0003 4.53332ZM15.8006 2.73298L15.2703 2.20265V2.20265L15.8006 2.73298ZM14.5306 22.6697L3.39692 11.536L2.33626 12.5966L13.4699 23.7303L14.5306 22.6697ZM24.6036 11.536L13.4699 22.6697L14.5306 23.7303L25.6643 12.5966L24.6036 11.536ZM11.6696 3.26332L13.4699 5.06365L14.5306 4.00299L12.7303 2.20265L11.6696 3.26332ZM14.5306 5.06365L16.3309 3.26331L15.2703 2.20265L13.4699 4.00299L14.5306 5.06365ZM20.4673 0.0499878C18.518 0.0499878 16.6486 0.824324 15.2703 2.20265L16.3309 3.26331C17.428 2.16629 18.9158 1.54999 20.4673 1.54999V0.0499878ZM26.3169 7.39965C26.3169 8.95108 25.7006 10.439 24.6036 11.536L25.6643 12.5966C27.0426 11.2183 27.8169 9.3489 27.8169 7.39965H26.3169ZM27.8169 7.39965C27.8169 3.34054 24.5264 0.0499878 20.4673 0.0499878V1.54999C23.6979 1.54999 26.3169 4.16897 26.3169 7.39965H27.8169ZM7.53326 1.54999C9.08468 1.54999 10.5726 2.16629 11.6696 3.26331L12.7303 2.20265C11.3519 0.824326 9.48251 0.0499878 7.53326 0.0499878V1.54999ZM1.68359 7.39965C1.68359 4.16897 4.30258 1.54999 7.53326 1.54999V0.0499878C3.47415 0.0499878 0.183594 3.34054 0.183594 7.39965H1.68359ZM3.39692 11.536C2.29989 10.439 1.68359 8.95108 1.68359 7.39965H0.183594C0.183594 9.3489 0.957929 11.2183 2.33626 12.5966L3.39692 11.536Z" fill="#8C8C8C"/>
</svg>
