<svg width="31" height="33" viewBox="0 0 31 33" fill="none" xmlns="http://www.w3.org/2000/svg">
<path d="M15.7144 0.25C11.7361 0.25 7.9208 1.79084 5.10775 4.53356C2.29471 7.27628 0.714355 10.9962 0.714355 14.875C0.714355 21.6513 5.44769 27.3388 11.8644 28.9963L15.7144 32.75L19.5644 28.9963C25.981 27.3388 30.7144 21.6513 30.7144 14.875C30.7144 10.9962 29.134 7.27628 26.321 4.53356C23.5079 1.79084 19.6926 0.25 15.7144 0.25ZM15.7144 3.5C18.481 3.5 20.7144 5.6775 20.7144 8.375C20.7144 11.0725 18.481 13.25 15.7144 13.25C12.9477 13.25 10.7144 11.0725 10.7144 8.375C10.7144 5.6775 12.9477 3.5 15.7144 3.5ZM15.7144 26.7375C13.7341 26.7375 11.7847 26.2597 10.0398 25.3467C8.29498 24.4337 6.80898 23.1139 5.71436 21.505C5.76436 18.2712 12.381 16.5 15.7144 16.5C19.031 16.5 25.6644 18.2712 25.7144 21.505C24.6197 23.1139 23.1337 24.4337 21.3889 25.3467C19.644 26.2597 17.6946 26.7375 15.7144 26.7375Z" fill="#262626"/>
</svg>
