<svg width="28" height="28" viewBox="0 0 28 28" fill="none" xmlns="http://www.w3.org/2000/svg">
<path fill-rule="evenodd" clip-rule="evenodd" d="M11.3025 1.86667L11.1534 2.62363L10.5832 5.39343C9.67142 5.7416 8.84461 6.23532 8.09755 6.8208L5.31034 5.88886L4.56156 5.65675L4.17329 6.32537L2.25448 9.53337L1.86621 10.2021L2.43475 10.6992L4.59102 12.5336C4.51302 13.0134 4.41249 13.488 4.41249 13.9921C4.41249 14.4961 4.51302 14.9708 4.59102 15.4507L2.43475 17.285L1.86621 17.7821L2.25448 18.4508L4.17329 21.6589L4.56156 22.3292L5.31034 22.0954L8.09755 21.1634C8.84461 21.7489 9.67142 22.2425 10.5832 22.5907L11.1534 25.3605L11.3025 26.1176H16.6949L16.8457 25.3605L17.4142 22.5907C18.3259 22.2425 19.1528 21.7489 19.8998 21.1634L22.687 22.0954L23.4358 22.3292L23.8258 21.6589L25.7429 18.4508L26.1329 17.7821L25.5626 17.285L23.4063 15.4507C23.4861 14.9708 23.5849 14.4961 23.5849 13.9921C23.5849 13.488 23.4861 13.0134 23.4063 12.5336L25.5626 10.6992L26.1329 10.2021L25.7429 9.53337L23.8258 6.32537L23.4358 5.65675L22.687 5.88886L19.8998 6.8208C19.1528 6.23532 18.3259 5.7416 17.4142 5.39343L16.8457 2.62363L16.6949 1.86667H11.3025Z" stroke="#131313" stroke-width="2" stroke-linecap="square" stroke-linejoin="round"/>
<path fill-rule="evenodd" clip-rule="evenodd" d="M17.4656 13.9921C17.4656 15.9044 15.9125 17.4565 13.9989 17.4565C12.0853 17.4565 10.5322 15.9044 10.5322 13.9921C10.5322 12.0797 12.0853 10.5277 13.9989 10.5277C15.9125 10.5277 17.4656 12.0797 17.4656 13.9921Z" stroke="#131313" stroke-width="2" stroke-linecap="square" stroke-linejoin="round"/>
</svg>
