<svg width="26" height="26" viewBox="0 0 26 26" fill="none" xmlns="http://www.w3.org/2000/svg">
<path fill-rule="evenodd" clip-rule="evenodd" d="M10.303 0.866669L10.1539 1.62363L9.58364 4.39343C8.67191 4.7416 7.8451 5.23532 7.09803 5.8208L4.31083 4.88886L3.56205 4.65675L3.17378 5.32537L1.25496 8.53337L0.866699 9.20209L1.43524 9.69922L3.59151 11.5336C3.51351 12.0134 3.41298 12.488 3.41298 12.9921C3.41298 13.4961 3.51351 13.9708 3.59151 14.4507L1.43524 16.285L0.866699 16.7821L1.25496 17.4508L3.17378 20.6589L3.56205 21.3292L4.31083 21.0954L7.09803 20.1634C7.8451 20.7489 8.67191 21.2425 9.58364 21.5907L10.1539 24.3605L10.303 25.1176H15.6954L15.8462 24.3605L16.4147 21.5907C17.3264 21.2425 18.1532 20.7489 18.9003 20.1634L21.6875 21.0954L22.4363 21.3292L22.8263 20.6589L24.7434 17.4508L25.1334 16.7821L24.5631 16.285L22.4068 14.4507C22.4866 13.9708 22.5854 13.4961 22.5854 12.9921C22.5854 12.488 22.4866 12.0134 22.4068 11.5336L24.5631 9.69922L25.1334 9.20209L24.7434 8.53337L22.8263 5.32537L22.4363 4.65675L21.6875 4.88886L18.9003 5.8208C18.1532 5.23532 17.3264 4.7416 16.4147 4.39343L15.8462 1.62363L15.6954 0.866669H10.303Z" stroke="#8C8C8C" stroke-width="1.5" stroke-linecap="square" stroke-linejoin="round"/>
<path fill-rule="evenodd" clip-rule="evenodd" d="M16.4661 12.9921C16.4661 14.9044 14.913 16.4565 12.9994 16.4565C11.0858 16.4565 9.53273 14.9044 9.53273 12.9921C9.53273 11.0797 11.0858 9.52773 12.9994 9.52773C14.913 9.52773 16.4661 11.0797 16.4661 12.9921Z" stroke="#8C8C8C" stroke-width="1.5" stroke-linecap="square" stroke-linejoin="round"/>
</svg>
