<svg width="205" height="164" viewBox="0 0 205 164" fill="none" xmlns="http://www.w3.org/2000/svg">
<path d="M115.664 18.2372C113.737 19.6478 111.889 21.1577 110.121 22.7471L70.9224 57.6742C65.8364 62.2635 65.439 70.1112 70.0483 75.1973L70.1675 75.3364C74.7569 80.4224 82.6045 80.8198 87.6906 76.2105L109.803 56.204C114.889 51.6146 122.737 51.9921 127.326 57.0781C131.916 62.1642 131.538 70.0119 126.452 74.6013L75.9688 121.29C68.5979 128.104 68.3794 139.687 75.4721 146.78C90.4323 161.74 114.691 161.74 129.631 146.78L174.869 101.542C231.412 44.9987 173.955 -21.0408 116.618 17.522L115.664 18.2372Z" stroke="#FF3940" stroke-width="12" stroke-miterlimit="10"/>
<path d="M34.8233 106.151L30.2141 101.542C28.4459 99.7734 26.7969 98.0052 25.2472 96.2171C-20.5871 43.449 28.128 -14.4051 80.9954 13.0717" stroke="#FF3940" stroke-width="12" stroke-miterlimit="10" stroke-linecap="round"/>
</svg>
