<svg width="169" height="44" viewBox="0 0 169 44" fill="none" xmlns="http://www.w3.org/2000/svg">
<path d="M4.67793 3.39L13.7079 28.758L22.8639 3.39H27.0219L16.1439 33H11.3139L0.477932 3.39H4.67793ZM40.3327 9.648C42.5727 9.648 44.4627 10.208 46.0027 11.328C47.5707 12.448 48.6627 13.946 49.2787 15.822V9.942H53.1007V33H49.2787V27.12C48.6627 28.996 47.5707 30.494 46.0027 31.614C44.4627 32.734 42.5727 33.294 40.3327 33.294C38.2887 33.294 36.4687 32.818 34.8727 31.866C33.2767 30.914 32.0167 29.556 31.0927 27.792C30.1967 26 29.7487 23.9 29.7487 21.492C29.7487 19.084 30.1967 16.984 31.0927 15.192C32.0167 13.4 33.2767 12.028 34.8727 11.076C36.4687 10.124 38.2887 9.648 40.3327 9.648ZM41.4247 13.05C39.0727 13.05 37.1827 13.806 35.7547 15.318C34.3547 16.802 33.6547 18.86 33.6547 21.492C33.6547 24.124 34.3547 26.196 35.7547 27.708C37.1827 29.192 39.0727 29.934 41.4247 29.934C42.9367 29.934 44.2807 29.584 45.4567 28.884C46.6607 28.184 47.5987 27.204 48.2707 25.944C48.9427 24.656 49.2787 23.172 49.2787 21.492C49.2787 19.812 48.9427 18.328 48.2707 17.04C47.5987 15.752 46.6607 14.772 45.4567 14.1C44.2807 13.4 42.9367 13.05 41.4247 13.05ZM58.5114 3.18C58.5114 2.48 58.7494 1.92 59.2254 1.5C59.7014 1.052 60.3314 0.827999 61.1154 0.827999C61.8994 0.827999 62.5294 1.052 63.0054 1.5C63.4814 1.92 63.7194 2.48 63.7194 3.18C63.7194 3.88 63.4814 4.454 63.0054 4.902C62.5294 5.322 61.8994 5.532 61.1154 5.532C60.3314 5.532 59.7014 5.322 59.2254 4.902C58.7494 4.454 58.5114 3.88 58.5114 3.18ZM63.0054 9.942V33H59.1834V9.942H63.0054ZM80.1542 29.64V33H77.2982C74.9462 33 73.1822 32.44 72.0062 31.32C70.8582 30.2 70.2842 28.324 70.2842 25.692V13.26H66.8402V9.942H70.2842V4.188H74.1482V9.942H80.1122V13.26H74.1482V25.776C74.1482 27.26 74.4142 28.282 74.9462 28.842C75.5062 29.374 76.4582 29.64 77.8022 29.64H80.1542ZM94.2682 9.648C96.5082 9.648 98.3982 10.208 99.9382 11.328C101.506 12.448 102.598 13.946 103.214 15.822V9.942H107.036V33H103.214V27.12C102.598 28.996 101.506 30.494 99.9382 31.614C98.3982 32.734 96.5082 33.294 94.2682 33.294C92.2242 33.294 90.4042 32.818 88.8082 31.866C87.2122 30.914 85.9522 29.556 85.0282 27.792C84.1322 26 83.6842 23.9 83.6842 21.492C83.6842 19.084 84.1322 16.984 85.0282 15.192C85.9522 13.4 87.2122 12.028 88.8082 11.076C90.4042 10.124 92.2242 9.648 94.2682 9.648ZM95.3602 13.05C93.0082 13.05 91.1182 13.806 89.6902 15.318C88.2902 16.802 87.5902 18.86 87.5902 21.492C87.5902 24.124 88.2902 26.196 89.6902 27.708C91.1182 29.192 93.0082 29.934 95.3602 29.934C96.8722 29.934 98.2162 29.584 99.3922 28.884C100.596 28.184 101.534 27.204 102.206 25.944C102.878 24.656 103.214 23.172 103.214 21.492C103.214 19.812 102.878 18.328 102.206 17.04C101.534 15.752 100.596 14.772 99.3922 14.1C98.2162 13.4 96.8722 13.05 95.3602 13.05ZM116.941 1.92V33H113.119V1.92H116.941ZM122.414 3.18C122.414 2.48 122.652 1.92 123.128 1.5C123.604 1.052 124.234 0.827999 125.018 0.827999C125.802 0.827999 126.432 1.052 126.908 1.5C127.384 1.92 127.622 2.48 127.622 3.18C127.622 3.88 127.384 4.454 126.908 4.902C126.432 5.322 125.802 5.532 125.018 5.532C124.234 5.532 123.604 5.322 123.128 4.902C122.652 4.454 122.414 3.88 122.414 3.18ZM126.908 9.942V33H123.086V9.942H126.908ZM144.057 29.64V33H141.201C138.849 33 137.085 32.44 135.909 31.32C134.761 30.2 134.187 28.324 134.187 25.692V13.26H130.743V9.942H134.187V4.188H138.051V9.942H144.015V13.26H138.051V25.776C138.051 27.26 138.317 28.282 138.849 28.842C139.409 29.374 140.361 29.64 141.705 29.64H144.057ZM150.317 9.942L157.793 28.086L164.723 9.942H168.965L155.273 43.92H150.947L155.735 32.622L146.033 9.942H150.317Z" fill="#131313"/>
</svg>
